inDegrees=no
num_controls=7
num_derivatives=13
num_iterations=128
num_multipliers=7
num_parameters=0
num_slacks=7
num_states=26
objective=5.036144
objective_accelerations=0.350260
objective_balance=0.021912
objective_effort=0.170713
objective_height=4.426647
objective_ligament=0.066611
solver_duration=1426.847963
status=Solve_Succeeded
success=true
DataType=double
version=3
OpenSimVersion=4.4-2022-07-23-0e9fedc
endheader
time	/jointset/ground_pelvis/pelvis_tilt/value	/jointset/ground_pelvis/pelvis_tx/value	/jointset/ground_pelvis/pelvis_ty/value	/jointset/hip_l/hip_flexion_l/value	/jointset/hip_l/hip_adduction_l/value	/jointset/hip_l/hip_rotation_l/value	/jointset/back/lumbar_extension/value	/jointset/patellofemoral_l/patellar_flexion_l/value	/jointset/knee_l/knee_flexion_l/value	/jointset/knee_l/knee_adduction_l/value	/jointset/knee_l/knee_rotation_l/value	/jointset/ankle_l/ankle_angle_l/value	/jointset/subtalar_l/subtalar_angle_l/value	/jointset/ground_pelvis/pelvis_tilt/speed	/jointset/ground_pelvis/pelvis_tx/speed	/jointset/ground_pelvis/pelvis_ty/speed	/jointset/hip_l/hip_flexion_l/speed	/jointset/hip_l/hip_adduction_l/speed	/jointset/hip_l/hip_rotation_l/speed	/jointset/back/lumbar_extension/speed	/jointset/patellofemoral_l/patellar_flexion_l/speed	/jointset/knee_l/knee_flexion_l/speed	/jointset/knee_l/knee_adduction_l/speed	/jointset/knee_l/knee_rotation_l/speed	/jointset/ankle_l/ankle_angle_l/speed	/jointset/subtalar_l/subtalar_angle_l/speed	/forceset/tau_hip_flexion_l	/forceset/tau_hip_adduction_l	/forceset/tau_hip_rotation_l	/forceset/tau_knee_flexion_l	/forceset/tau_ankle_angle_l	/forceset/tau_subtalar_angle_l	/forceset/tau_lumbar_extension	lambda_cid13_p0	lambda_cid13_p1	lambda_cid13_p2	lambda_cid13_p3	lambda_cid13_p4	lambda_cid13_p5	lambda_cid14_p0	/jointset/ground_pelvis/pelvis_tilt/accel	/jointset/ground_pelvis/pelvis_tx/accel	/jointset/ground_pelvis/pelvis_ty/accel	/jointset/hip_l/hip_flexion_l/accel	/jointset/hip_l/hip_adduction_l/accel	/jointset/hip_l/hip_rotation_l/accel	/jointset/back/lumbar_extension/accel	/jointset/patellofemoral_l/patellar_flexion_l/accel	/jointset/knee_l/knee_flexion_l/accel	/jointset/knee_l/knee_adduction_l/accel	/jointset/knee_l/knee_rotation_l/accel	/jointset/ankle_l/ankle_angle_l/accel	/jointset/subtalar_l/subtalar_angle_l/accel	gamma_cid13_p0	gamma_cid13_p1	gamma_cid13_p2	gamma_cid13_p3	gamma_cid13_p4	gamma_cid13_p5	gamma_cid14_p0
1.5	-0.1469524527301616	0.08550849960810104	0.8232281461896577	0.6158144772807473	-0.4404250059018116	-0.2915176095498789	-0.1969517756663539	0.6643158294095916	0.6643158294095245	-0.1648179464209387	-0.1593068780264998	0.2326287352323969	0.03753345143376099	0.09724148926892359	0.04385034367403848	0.2848025376730102	-1.132192913819727	0.2620193527770545	-0.6198725020994823	0.350152256587607	-1.631810266780574	-1.631810266780603	-0.02129131359099656	0.08160523314520086	-0.7051364923753884	-0.09745885409052554	-0.06398821717039983	0.03943647020479532	-0.009547549403418277	-0.2128017241335585	-0.03288451607042854	0.02129368197044513	0.09212324335107118	-43.5638204892097	-6.432079376459158	6.18592791049474	2.37010829644973	-531.9653549739572	-67.06708877757514	-31.8313483600509	0.04266229764707135	0.1702571764739115	-0.2972126186326232	-0.5228498980454047	0.5249355517331697	-0.08764307452334974	0.8256313431774177	-1.136303932926833	-1.136303932926836	-0.03820219370209047	0.163037227766934	-0.4605977582781812	0.4050561416785695	7.012322977013163e-08	8.625382684168187e-07	-1.481837516347554e-07	1.810181453416118e-07	1.8168192214432e-08	4.771258032550224e-07	9.146097659851358e-08
1.51	-0.1459780606878343	0.08595546977537284	0.826060676278205	0.6044680440289965	-0.4377791088655429	-0.2977208947947502	-0.1934093902876844	0.6479433554317744	0.6479433554317205	-0.1650328545622	-0.1584841019083035	0.22555525298693	0.03657884658784708	0.09763098791400433	0.04553757626742195	0.2816452909437038	-1.136929413580947	0.267133224832529	-0.6206955837484197	0.3582695119848924	-1.642450868786505	-1.642450868786555	-0.02169114383883686	0.0829339358803839	-0.709458940424508	-0.09344755216328662	-0.06160137902092244	0.03764329835670274	-0.009508411905199693	-0.2101842583157423	-0.03018611718488451	0.02090655790538532	0.08987539781749472	-42.62212736429437	-6.457234015239849	6.222376483626688	2.043813614906654	-530.0385978981393	-67.17065359732946	-32.53203882898741	0.03618364341713332	0.167078907274995	-0.3337100200283961	-0.4244243138597822	0.5005049516347936	-0.06622372626946788	0.7964765639447642	-0.9929061570933073	-0.9929061570964326	-0.04086271752311102	0.1153681055539854	-0.4028842669133919	0.4012134292880267	5.641617523987008e-08	8.983414500377159e-07	-9.022073661656891e-08	1.923366890777489e-07	3.022243342887944e-09	4.593108616645392e-07	8.661056078797986e-08
1.52	-0.1449999556599608	0.08641913678987984	0.8288598880354695	0.5930791709198953	-0.435082894724888	-0.3039297274593518	-0.1897874915698521	0.6314714818693478	0.631471481869328	-0.1652517588613132	-0.1576485225009793	0.2184415830732332	0.03566476400341307	0.09798408637822864	0.04718971312107594	0.2781388714164906	-1.140680885290126	0.2720827736552296	-0.6209819860449829	0.3660549244197959	-1.651690183699119	-1.651690183699191	-0.02209054517460321	0.08416589098197932	-0.7131740260210084	-0.08935440179438468	-0.05921454087144321	0.03585012650856727	-0.009469274406627532	-0.2075667924979777	-0.02748771829936591	0.02051943384024775	0.08762755228394668	-41.68752579564806	-6.481245078787533	6.258755252298275	1.713368937440603	-528.2316271295939	-67.3030180154737	-33.22028483694651	0.03538226147582298	0.163238028527997	-0.3670471782139589	-0.3258442876369308	0.4920709051783727	0.01969279595154837	0.7592627507011152	-0.8560465142634027	-0.8560465142634008	-0.03811641128735015	0.1436877010494915	-0.3391252677543334	0.4214258300111704	4.420364876604475e-08	9.353136979008695e-07	-4.292477399855581e-08	2.034472848394654e-07	-1.080242600012653e-08	4.460469846109614e-07	8.323993283293882e-08
1.53	-0.1440185617528879	0.08689912112150446	0.8316223165596295	0.5816578540007163	-0.4323380427130983	-0.3101389357245621	-0.1860894001289187	0.6149143928109247	0.6149143928109091	-0.1654745264171674	-0.1568012847089111	0.2112938553424047	0.03479202142428463	0.0982883720595448	0.04879818771957723	0.274292434588542	-1.143411736112347	0.2768559352788281	-0.6207720334239012	0.3735011135289374	-1.659481998355765	-1.659481998355778	-0.0224609980646978	0.08526306211883961	-0.7162663263050341	-0.08518281297553096	-0.05678968114418093	0.03414190588379448	-0.009453592065484228	-0.2048982709226889	-0.02472603348734976	0.01998420388873519	0.08534240333920233	-40.73745240902712	-6.43396886050389	6.272718509863114	1.408620176918277	-526.4073038122796	-67.29653561991455	-33.89275214137056	0.02697771164847125	0.1583513861785349	-0.4016077336755818	-0.2211197518610881	0.465080238062053	0.03485995527245033	0.7279594554819891	-0.7039205925535514	-0.7039205925448587	-0.03606194333438004	0.08994020896244738	-0.2784715537418616	0.4165619158190562	3.357905835218292e-08	9.735280786464205e-07	-6.962554555726866e-09	2.143369358783601e-07	-2.322323584407834e-08	4.376186136278456e-07	8.144157947435876e-08
